<svg xmlns="http://www.w3.org/2000/svg"
shape-rendering="geometricPrecision"
width="4000" height="4000" viewBox="0 0 466 466">
  <metadata>null</metadata>

<path d="
M 21.13 223.477
C 26.029 220.191 30.798 215.47 36.417 213.44
C 35.129 211.801 33.422 210.766 32.478 208.802
C 31.169 209.123 29.869 209.313 28.528 209.028
C 21.01 207.429 24.356 195.616 31.832 197.475
C 32.814 197.719 33.723 198.242 34.472 198.919
C 35.255 199.628 35.943 200.562 36.228 201.589
C 36.692 203.259 36.126 204.722 35.956 206.361
C 37.851 207.467 39.579 210.156 41.646 210.767
C 43.133 211.206 45.425 210.712 46.989 210.662
C 50.659 210.545 54.337 210.551 58.009 210.567
C 59.597 210.574 62.476 211.184 63.93 210.625
C 56.313 203.176 49.089 195.184 41.666 187.516
C 39.317 185.089 37 182.629 34.625 180.227
C 33.274 178.862 31.57 177.585 30.502 175.99
C 31.998 174.458 33.533 173.019 35.102 171.566
C 36.21 171.891 37.378 173.557 38.194 174.385
C 40.388 176.61 42.635 178.785 44.796 181.044
C 52.503 189.1 59.993 197.667 68.084 205.322
C 68.219 205.25 68.069 204.085 68.063 203.942
C 67.996 202.3 68.049 200.641 68.045 198.996
C 68.04 196.33 68.076 193.663 68.078 190.997
C 68.079 189.883 68.395 188.364 67.864 187.332
C 66.546 184.773 63.772 182.951 62.736 180.221
C 61.164 180.314 60.235 180.708 58.614 180.144
C 50.529 177.334 56.414 164.965 63.756 169.576
C 64.586 170.098 65.32 170.81 65.828 171.653
C 66.829 173.315 65.986 174.879 66.257 176.585
C 67.65 177.983 68.924 179.887 70.498 181.055
C 71.633 180.334 72.291 177.7 72.897 176.506
C 74.662 173.029 76.785 169.681 78.951 166.443
C 79.788 165.191 80.567 163.342 81.913 162.585
C 83.676 163.45 85.378 164.489 87.03 165.552
C 86.263 167.708 84.408 169.533 83.182 171.455
C 80.116 176.264 76.889 181.582 75.195 187.065
C 74.469 189.412 74.875 192.285 74.854 194.719
C 74.811 199.625 74.645 204.611 74.898 209.51
C 74.994 211.379 76.458 212.638 77.649 213.944
C 80.04 216.565 82.515 219.121 84.857 221.784
C 86.283 223.405 87.745 226.172 86.291 228.298
C 84.787 230.497 81.821 229.876 80.171 228.326
C 77.516 225.833 75.285 222.87 72.708 220.291
C 71.226 218.808 70.302 217.289 68.064 217.261
C 62.551 217.194 57.037 217.283 51.525 217.321
C 48.695 217.34 45.323 217.026 42.653 218.122
C 38.366 219.882 33.918 222.305 30.176 225.03
C 28.468 226.274 25.667 229.148 23.573 229.464
C 22.719 227.482 21.959 225.468 21.13 223.477 Z"
opacity="1" fill="rgb(54,166,215)" fill-rule="evenodd" />
<path d="
M 22.309 240.469
C 23.261 238.966 24 237.021 24.493 235.311
C 26.239 235.75 27.949 237.491 29.401 238.539
C 32.37 240.681 35.48 242.657 38.74 244.329
C 41.37 245.678 44.217 246.991 47.147 247.501
C 51.322 248.229 55.785 247.755 60.005 247.754
C 63.017 247.753 66.427 248.275 69.384 247.688
C 70.535 247.181 71.487 245.866 72.375 244.996
C 74.464 242.952 76.544 240.882 78.55 238.757
C 79.433 237.822 80.35 236.454 81.555 235.93
C 85.349 234.281 88.032 238.404 86.756 241.689
C 86.152 243.244 84.259 244.418 83.066 245.51
C 80.267 248.072 77.413 250.694 74.807 253.451
C 74.37 254.417 74.509 255.858 74.486 256.94
C 74.433 259.439 74.459 261.938 74.418 264.436
C 74.335 269.396 73.397 275.095 74.577 279.956
C 76.515 287.943 82.309 294.298 86.456 301.094
C 84.696 302.183 82.882 303.105 81.024 304.007
C 77.864 300.585 75.126 296.239 72.874 292.175
C 72.258 291.063 71.669 289.95 71.123 288.801
C 70.91 288.352 70.858 287.552 70.335 287.363
C 69.237 288.625 67.604 289.544 66.196 290.438
C 66.562 291.662 66.768 292.794 66.627 294.081
C 65.762 301.974 52.224 299.491 54.484 291.612
C 54.725 290.774 55.096 289.996 55.64 289.313
C 56.357 288.414 57.36 287.702 58.474 287.393
C 59.967 286.979 61.352 287.425 62.84 287.497
C 64.321 285.521 66.487 283.477 67.459 281.198
C 68.278 279.277 67.756 276.31 67.782 274.255
C 67.843 269.28 68.219 264.175 67.984 259.219
C 64.912 260.945 62.196 264.619 59.685 267.08
C 54.129 272.522 48.529 277.922 43.029 283.417
C 40.852 285.591 38.637 287.736 36.414 289.864
C 35.719 290.529 34.585 292.14 33.656 292.373
C 32.07 290.89 30.458 289.142 29.079 287.477
C 37.488 278.378 46.918 270.057 55.796 261.41
C 57.379 259.868 58.88 258.109 60.583 256.705
C 61.295 256.118 62.274 255.654 62.881 254.969
C 60.136 254.879 57.385 255.125 54.632 255.09
C 51.374 255.049 48.114 254.689 44.854 254.892
C 43.802 255.344 43.046 256.347 42.181 257.085
C 40.863 258.209 39.421 259.171 38.1 260.286
C 37.931 261.856 38.339 263.173 37.552 264.696
C 37.079 265.611 36.299 266.393 35.457 266.973
C 32.586 268.951 28.536 268.009 26.794 265.012
C 25.257 262.367 25.89 257.6 28.91 256.205
C 31.041 255.221 32.804 256.48 34.845 256.425
C 36.034 254.966 37.467 253.432 38.964 252.287
C 39.03 251.822 38.108 251.636 37.742 251.446
C 36.706 250.907 35.681 250.363 34.629 249.854
C 30.141 247.682 26.567 243.689 22.088 241.641
C 22.099 240.796 22.013 241.184 22.309 240.469 Z"
opacity="1" fill="rgb(251,175,40)" fill-rule="evenodd" />
<path d="
M 93.945 240.127
C 94.209 237.355 96.783 233.853 99.988 235.977
C 101.287 236.838 102.228 238.619 103.228 239.797
C 105.081 241.981 107.187 243.964 109.163 246.036
C 110.089 247.006 111.019 248.5 112.265 249.048
C 115.298 249.641 118.907 249.039 122.004 249.039
C 129.05 249.041 135.901 249.632 142.508 246.82
C 146.13 245.278 149.491 243.325 152.789 241.192
C 154.375 240.166 155.763 238.778 157.506 238.044
C 158.178 239.765 160.339 241.916 160.325 243.832
C 157.537 246.731 153.383 248.794 149.923 250.773
C 148.578 251.543 146.348 252.188 145.502 253.494
C 146.598 254.794 148.114 256.09 148.758 257.688
C 149.39 257.918 150.465 257.365 151.168 257.31
C 152.606 257.199 153.987 257.734 155.09 258.637
C 160.839 263.342 154.841 272.167 148.384 268.552
C 147.589 268.107 146.769 267.555 146.196 266.835
C 144.918 265.232 145.506 263.525 145.249 261.696
C 144.082 259.811 141.315 257.176 139.39 256.055
C 132.33 256.108 125.245 256.102 118.192 256.323
C 119.607 258.203 121.502 259.851 123.072 261.625
C 128.931 268.248 135.215 274.515 141.294 280.935
C 143.22 282.97 145.168 284.983 147.094 287.017
C 148.003 287.978 149.507 289.142 150.001 290.382
C 148.783 292.043 146.912 293.29 145.508 294.794
C 144.665 294.325 143.987 293.203 143.313 292.502
C 141.757 290.885 140.128 289.336 138.549 287.742
C 132.691 281.83 127.118 275.646 121.344 269.656
C 119.391 267.63 117.426 265.613 115.437 263.622
C 114.769 262.952 113.901 261.599 112.916 261.748
C 112.921 265.592 112.766 269.448 112.708 273.293
C 112.69 274.506 112.094 276.772 112.623 277.868
C 113.896 280.506 116.541 282.429 117.964 285.024
C 119.328 284.825 120.668 284.612 122.037 284.915
C 126.014 285.795 127.756 290.944 125.762 294.268
C 124.625 296.164 122.357 296.975 120.231 296.93
C 119.109 296.906 118.012 296.552 117.051 295.979
C 116.008 295.357 115.201 294.406 114.704 293.302
C 113.94 291.603 114.668 289.859 114.518 288.123
C 113.687 286.592 111.708 285.284 110.392 284.169
C 107.525 290.851 103.71 297.169 99.324 302.957
C 97.892 302.896 96.146 301.215 94.96 300.468
C 94.451 300.149 93.943 300.163 93.699 299.574
C 98.76 292.945 104.032 284.578 105.759 276.289
C 106.534 272.57 106.085 268.456 106.093 264.677
C 106.098 262.514 105.944 260.371 105.919 258.216
C 105.906 257.09 106.106 255.75 105.755 254.659
C 105.389 253.524 104.185 252.515 103.407 251.651
C 101.615 249.663 99.694 247.758 97.723 245.948
C 95.904 244.277 94.141 242.734 93.945 240.127 Z"
opacity="1" fill="rgb(238,80,39)" fill-rule="evenodd" />
<path d="
M 94.496 225.619
C 94.533 223.2 96.028 221.72 97.673 220.161
C 100.33 217.643 104.758 214.729 106.308 211.353
C 107.326 206.182 106.8 200.256 106.853 194.997
C 106.884 191.887 107.388 188.194 106.651 185.155
C 105.551 180.623 102.456 175.87 100.026 171.937
C 98.49 169.451 96.951 166.256 94.754 164.316
C 96.706 163.416 98.481 162.011 100.485 161.245
C 104.269 166.378 109.09 172.32 111.062 178.455
C 111.578 178.548 111.917 177.982 112.272 177.634
C 113.29 176.637 114.372 175.708 115.387 174.71
C 115.707 173.968 114.925 172.751 114.882 171.927
C 114.794 170.239 115.656 168.85 116.816 167.684
C 119.628 164.858 124.72 166.422 126.376 169.772
C 127.722 172.497 126.583 175.819 124.14 177.436
C 122.127 178.769 120.549 177.515 118.515 177.744
C 116.913 180.215 114.412 182.781 113.579 185.655
C 113.061 187.444 113.572 189.576 113.579 191.415
C 113.595 196.253 113.896 201.172 113.48 205.992
C 114.626 205.464 115.607 203.996 116.522 203.114
C 118.89 200.829 121.312 198.599 123.669 196.302
C 131.505 188.663 139.373 181.045 147.034 173.232
C 148.412 173.822 151.222 176.445 151.932 177.73
C 145.029 184.535 138.326 191.568 131.315 198.28
C 127.278 202.145 122.569 205.867 119.144 210.29
C 119.292 210.89 122.203 210.358 122.852 210.347
C 127.192 210.272 131.774 211.168 136.066 210.732
C 138.093 209.836 141.071 207.259 142.488 205.588
C 142.764 203.699 141.951 202.46 143.035 200.558
C 143.514 199.717 144.196 199.024 144.977 198.457
C 152.215 193.208 158.844 206.22 150.706 209.374
C 148.987 210.04 147.211 209.155 145.472 209.214
C 144.377 210.439 142.661 211.706 142.115 213.285
C 143.336 214.168 145.086 214.686 146.452 215.403
C 150.861 217.72 156.456 220.412 159.92 224.055
C 159.114 225.92 158.162 228.159 156.926 229.774
C 155.232 228.997 153.581 227.233 151.985 226.197
C 147.123 223.04 141.753 219.824 136.228 217.989
C 133.286 217.013 129.973 217.373 126.921 217.368
C 122.449 217.36 117.763 216.984 113.312 217.442
C 111.652 217.613 110.565 219.112 109.356 220.12
C 106.173 222.774 103.688 226.362 100.375 228.824
C 97.36 231.065 94.694 229.176 94.496 225.619 Z"
opacity="1" fill="rgb(56,166,219)" fill-rule="evenodd" />
<path d="
M 191.959 174.598
C 192.026 173.952 191.998 174.319 192.021 173.495
C 197.502 172.719 203.471 173.322 209.004 173.322
C 219.976 173.322 230.945 173.356 241.917 173.422
C 241.668 177.303 241.554 181.407 241.875 185.286
C 233.272 185.04 224.613 185.306 216.005 185.35
C 213.838 185.361 211.671 185.361 209.504 185.379
C 208.487 185.387 207.392 185.194 206.554 185.822
C 206.23 191.321 207.211 197.027 206.494 202.494
C 207.091 202.823 208.304 202.602 209.002 202.591
C 211.003 202.56 213.005 202.586 215.006 202.602
C 222.484 202.662 230.091 203.107 237.558 202.686
C 237.973 206.597 237.004 210.835 237.76 214.703
C 227.518 214.358 217.002 214.266 206.767 214.763
C 205.833 216.349 206.475 219.51 206.465 221.348
C 206.431 227.203 206.337 233.116 206.573 238.954
C 203.396 239.389 199.732 238.863 196.502 238.885
C 195.21 238.894 193.271 239.278 192.095 238.816
C 191.347 227.822 192.083 216.521 192.059 205.493
C 192.036 195.287 191.205 184.773 191.959 174.598 Z"
opacity="1" fill="rgb(17,32,60)" fill-rule="evenodd" />
<path d="
M 192.33 255.381
C 196.646 255.494 200.99 255.494 205.311 255.491
C 209.021 255.488 213.06 255.541 216.365 257.438
C 222.85 261.161 224.261 270.295 219.976 276.235
C 218.54 278.227 216.513 279.335 214.319 280.322
C 216.642 283.009 218.493 286.159 220.397 289.149
C 221.324 290.606 222.179 292.392 223.47 293.546
C 222.425 293.987 219.303 293.565 218.118 293.409
C 216.615 290.597 214.74 288.041 212.983 285.388
C 212.019 283.932 211.2 282.208 210.056 280.895
C 205.754 280.413 201.238 280.925 196.909 280.836
C 196.084 284.526 196.474 289.58 196.77 293.354
C 195.273 293.338 193.747 293.432 192.263 293.583
C 192.732 280.884 191.594 268.066 192.33 255.381 Z
M 196.729 259.209
C 196.565 263.128 196.714 267.07 196.697 270.993
C 196.688 272.996 196.32 275.283 196.672 277.246
C 202.141 276.552 209.026 278.615 214.114 275.823
C 219.603 272.81 218.927 263.727 213.857 260.674
C 209.344 257.955 201.811 259.134 196.729 259.209 Z"
opacity="1" fill="rgb(12,24,51)" fill-rule="evenodd" />
<path d="
M 234.313 264.865
C 235.585 264.892 237.202 264.561 238.418 264.965
C 238.228 269.179 238.395 273.463 238.411 277.685
C 238.42 280.135 238.27 283.118 239.363 285.368
C 242.65 292.137 252.737 290.51 255.503 284.204
C 256.352 282.268 256.296 279.82 256.335 277.751
C 256.414 273.481 256.061 269.151 256.269 264.897
C 257.644 264.938 259.069 265.04 260.442 264.988
C 260.645 271.14 260.598 277.323 260.586 283.494
C 260.58 286.609 260.193 290.143 260.733 293.212
C 259.374 293.077 257.843 293.168 256.49 293.344
C 255.801 292.327 256.509 289.87 256.492 288.635
C 255.852 289.023 255.624 289.658 255.142 290.171
C 253.889 291.504 252.006 292.533 250.26 293.025
C 248.601 293.493 246.745 293.718 245.025 293.599
C 243.681 293.507 242.35 293.215 241.082 292.765
C 237.358 291.443 234.93 287.812 234.469 283.965
C 233.731 277.797 234.754 271.495 234.084 265.321
C 234.16 265.169 234.236 265.017 234.313 264.865 Z"
opacity="1" fill="rgb(8,20,50)" fill-rule="evenodd" />
<path d="
M 253.499 174.596
C 253.502 174.323 253.505 174.051 253.508 173.778
C 255.304 173.292 257.153 173.542 258.999 173.533
C 261.991 173.516 264.977 173.435 267.969 173.48
C 268.829 183.36 268.214 193.579 268.229 203.504
C 268.237 209.24 267.846 215.28 270.586 220.513
C 276.037 230.927 292.835 229.483 297.433 219.163
C 299.391 214.766 299.213 209.562 299.223 204.848
C 299.237 197.567 299.144 190.286 299.195 183.005
C 299.215 180.144 298.488 176.109 299.308 173.392
C 302.616 173.471 305.931 173.441 309.241 173.425
C 310.503 173.418 312.628 173.034 313.786 173.509
C 313.863 183.334 313.74 193.175 313.724 203.003
C 313.709 211.397 313.875 220.145 309.255 227.549
C 298.139 245.366 265.666 244.507 256.467 225.221
C 253.205 218.382 253.389 210.883 253.404 203.496
C 253.423 193.861 253.645 184.225 253.499 174.596 Z"
opacity="1" fill="rgb(19,33,61)" fill-rule="evenodd" />
<path d="
M 274.283 264.849
C 275.647 264.902 277.11 265.002 278.468 264.934
C 278.404 266.236 278.443 267.537 278.353 268.839
C 278.544 269.025 279.15 268.313 279.296 268.184
C 280.348 267.256 281.469 266.354 282.753 265.769
C 285.481 264.528 289.108 264.397 291.987 265.141
C 293.115 265.433 294.191 265.915 295.187 266.514
C 304.22 271.945 299.653 284.782 300.758 293.29
C 299.287 293.299 297.805 293.219 296.342 293.397
C 295.55 292.23 296.159 288.995 296.172 287.581
C 296.215 282.787 297.589 275.903 294.504 271.793
C 290.441 266.38 282.212 267.849 279.293 273.589
C 278.263 275.613 278.444 278.114 278.424 280.325
C 278.388 284.546 277.973 289.079 278.611 293.248
C 277.358 293.499 275.448 293.354 274.172 293.207
C 274.091 286.979 274.321 280.738 274.283 274.504
C 274.265 271.522 273.572 267.724 274.283 264.849 Z"
opacity="1" fill="rgb(11,24,53)" fill-rule="evenodd" />
<path d="
M 309.821 264.758
C 311.496 264.653 313.162 264.687 314.839 264.727
C 314.852 262.731 314.91 260.721 314.788 258.726
C 315.922 258.66 318.442 258.251 319.413 258.886
C 319.282 260.87 319.171 262.996 319.411 264.97
C 321.802 264.682 324.597 264.487 326.987 264.817
C 326.84 265.896 327.203 267.204 326.822 268.226
C 324.35 268.268 321.873 268.295 319.406 268.352
C 319.38 273.459 319.181 278.576 319.201 283.687
C 319.209 285.886 319.189 288.23 321.419 289.378
C 323.76 290.583 325.184 288.76 327.343 288.688
C 327.652 289.918 328.527 290.844 328.9 292.051
C 328.164 292.843 326.496 293.15 325.474 293.359
C 321.722 294.129 317.671 293.368 315.833 289.631
C 314.631 287.186 314.862 284.277 314.907 281.625
C 314.983 277.203 315.258 272.746 315.012 268.333
C 313.34 268.218 311.696 268.287 310.023 268.342
C 309.468 267.638 309.8 265.638 309.821 264.758 Z"
opacity="1" fill="rgb(5,15,48)" fill-rule="evenodd" />
<path d="
M 325.871 232.098
C 327.466 228.478 329.207 224.943 330.392 221.154
C 338.2 226.158 347.018 229.768 356.53 228.332
C 361.405 227.596 367.481 224.006 364.065 218.296
C 361.778 214.474 356.156 213.877 352.252 212.881
C 343.285 210.594 331.37 208.69 328.274 198.431
C 327.784 196.804 327.483 195.094 327.431 193.395
C 327.351 190.758 327.857 187.955 328.936 185.543
C 334.797 172.442 352.021 170.515 364.509 173.358
C 368.058 174.165 371.384 175.201 374.716 176.677
C 375.288 176.93 377.5 177.646 377.536 178.263
C 376.181 181.97 374.237 185.604 373.381 189.491
C 371.485 188.956 369.751 187.728 367.883 187.065
C 361.741 184.888 354.836 183.5 348.382 185.067
C 343.784 186.184 339.326 192.239 343.92 196.215
C 346.57 198.51 350.606 199.208 353.901 200.056
C 363.142 202.435 375.035 204.174 378.977 214.253
C 383.036 224.63 375.514 234.398 366.107 237.911
C 352.465 243.004 338.004 239.302 325.78 232.584
C 325.811 232.422 325.841 232.26 325.871 232.098 Z"
opacity="1" fill="rgb(19,32,60)" fill-rule="evenodd" />
<path d="
M 338.853 255.03
C 338.921 254.899 338.988 254.767 339.056 254.636
C 342.097 250.72 347.23 256.235 342.889 259.124
C 340.149 260.048 338.266 257.591 338.853 255.03 Z"
opacity="1" fill="rgb(4,9,35)" fill-rule="evenodd" />
<path d="
M 339.48 292.142
C 340.131 283.038 339.328 273.844 339.688 264.729
C 340.859 264.671 343.022 264.201 343.971 264.981
C 343.547 269.586 343.844 274.368 343.839 278.996
C 343.835 283.701 343.519 288.52 343.876 293.212
C 342.478 293.114 340.984 293.248 339.584 293.351
C 339.524 292.941 339.482 292.557 339.48 292.142 Z"
opacity="1" fill="rgb(6,18,44)" fill-rule="evenodd" />
<path d="
M 358.324 264.947
C 359.863 264.926 361.408 264.905 362.947 264.877
C 362.91 265.998 362.694 267.114 362.766 268.235
C 363.204 269.016 364.5 267.096 365.084 266.645
C 366.544 265.516 368.364 264.936 370.163 264.621
C 375.816 263.631 379.299 266.344 382.758 270.353
C 383.426 270.071 384.193 268.18 384.783 267.593
C 386.288 266.097 388.433 265.296 390.474 264.874
C 391.977 264.564 393.484 264.454 395.015 264.592
C 396.345 264.711 397.699 264.982 398.911 265.56
C 406.592 269.221 405.591 277.321 405.596 284.515
C 405.598 287.444 405.839 290.469 405.62 293.386
C 404.161 293.566 402.517 293.493 401.052 293.404
C 400.687 288.66 401.197 283.936 401.118 279.189
C 401.085 277.168 401.243 274.718 400.314 272.86
C 397.269 266.779 388.337 267.199 385.205 272.922
C 383.642 275.778 383.77 278.872 383.784 282.031
C 383.802 285.808 383.826 289.583 383.896 293.358
C 382.606 293.379 380.826 293.637 379.628 293.179
C 379.567 288.858 379.593 284.547 379.544 280.226
C 379.517 277.883 379.778 274.977 378.693 272.828
C 375.652 266.805 367.238 267.144 364.029 272.716
C 362.576 275.238 362.726 278.112 362.713 280.941
C 362.694 285.011 362.405 289.257 362.765 293.308
C 361.313 293.324 359.854 293.187 358.405 293.32
C 357.726 288.404 358.32 282.968 358.318 278.003
C 358.316 273.8 357.703 269.088 358.324 264.947 Z"
opacity="1" fill="rgb(6,19,48)" fill-rule="evenodd" />
<path d="
M 392.494 174.592
C 392.571 174.028 392.509 174.374 392.731 173.564
C 409.323 173.187 425.986 173.969 442.569 173.375
C 442.85 174.919 442.559 176.667 442.56 178.234
C 442.562 180.566 442.861 183.041 442.616 185.355
C 439.799 185.858 436.378 185.277 433.5 185.289
C 424.786 185.325 415.801 184.734 407.123 185.524
C 405.905 190.142 407.538 195.48 407.02 200.196
C 414.513 200.172 422.011 200.252 429.505 200.241
C 431.503 200.238 433.498 200.214 435.494 200.156
C 436.415 200.129 437.648 199.903 438.485 200.293
C 438.139 203.873 438.285 208.039 438.638 211.617
C 432.289 211.3 425.854 211.581 419.497 211.658
C 415.424 211.708 411.126 211.372 407.092 211.958
C 406.514 217.02 407.128 222.221 406.974 227.302
C 413.639 227.074 420.333 227.281 427.003 227.258
C 432.703 227.239 438.49 226.949 444.18 227.234
C 444.1 230.054 444.193 232.902 444.226 235.729
C 444.237 236.742 444.003 238.145 444.238 239.108
C 432.676 239.097 421.081 238.968 409.506 238.966
C 404.073 238.965 398.259 238.372 392.871 239.02
C 392.046 238.38 392.548 235.979 392.555 234.988
C 392.582 231.155 392.55 227.322 392.543 223.489
C 392.525 212.656 392.578 201.824 392.562 190.991
C 392.554 185.604 392.033 179.947 392.494 174.592 Z"
opacity="1" fill="rgb(20,33,62)" fill-rule="evenodd" />
<path d="
M 416.468 277.615
C 416.852 274.069 418.201 270.608 420.887 268.149
C 425.601 263.833 433.888 263.469 438.924 267.399
C 443.281 270.799 443.945 275.258 444.344 280.411
C 442.346 280.768 440.049 280.48 438.018 280.45
C 434.124 280.393 430.235 280.444 426.342 280.453
C 424.465 280.457 422.54 280.176 420.702 280.633
C 422.584 286.991 428.251 291.703 435.242 289.374
C 437.112 288.75 438.442 287.27 440.019 286.176
C 440.602 286.731 442.902 288.382 442.721 289.269
C 434.335 296.117 420.441 294.682 417.03 283.159
C 416.503 281.379 416.317 279.463 416.468 277.615 Z
M 420.95 276.08
C 420.76 276.825 420.854 276.434 420.669 277.255
C 425.082 277.015 429.587 277.249 434.01 277.269
C 435.832 277.278 438.631 276.793 440.327 277.332
C 439.504 274.609 438.268 271.694 435.936 269.922
C 430.059 265.457 422.786 269.796 420.95 276.08 Z"
opacity="1" fill="rgb(7,16,46)" fill-rule="evenodd" />

</svg>